<?xml version="1.0" standalone="no"?>
<!DOCTYPE svg PUBLIC "-//W3C//DTD SVG 20010904//EN"
 "http://www.w3.org/TR/2001/REC-SVG-20010904/DTD/svg10.dtd">
<svg version="1.0" xmlns="http://www.w3.org/2000/svg"
 width="124.000000pt" height="77.000000pt" viewBox="0 0 124.000000 77.000000"
 preserveAspectRatio="xMidYMid meet">

<g transform="translate(0.000000,77.000000) scale(0.100000,-0.100000)"
fill="#2b2f52" stroke="none">
<path d="M307 598 l-299 -161 117 -68 c64 -38 119 -69 121 -69 2 0 4 20 4 45
0 32 6 50 21 64 121 113 526 122 682 16 34 -24 37 -29 37 -75 0 -28 2 -50 5
-50 3 0 27 13 53 30 27 16 52 30 56 30 11 0 6 -106 -5 -117 -16 -16 -4 -43 20
-43 22 0 33 21 20 41 -5 8 -9 42 -9 76 l0 62 50 27 c28 15 47 31 43 35 -17 17
-591 319 -604 318 -8 0 -148 -73 -312 -161z"/>
<path d="M512 439 c-73 -9 -148 -32 -180 -55 -19 -13 -22 -24 -22 -81 0 -58 2
-64 18 -58 128 51 466 51 595 0 15 -6 17 0 17 52 0 45 -5 64 -18 76 -33 30
-107 56 -192 66 -94 12 -126 12 -218 0z"/>
<path d="M480 229 c-89 -10 -155 -31 -155 -50 0 -39 234 -68 408 -51 237 23
247 76 19 102 -98 11 -164 11 -272 -1z"/>
<path d="M1080 98 c-12 -40 -24 -76 -26 -80 -3 -4 9 -2 26 3 17 6 44 9 61 7
29 -4 30 -4 23 26 -30 138 -53 150 -84 44z"/>
</g>
</svg>
