<?xml version="1.0" standalone="no"?>
<!DOCTYPE svg PUBLIC "-//W3C//DTD SVG 20010904//EN"
 "http://www.w3.org/TR/2001/REC-SVG-20010904/DTD/svg10.dtd">
<svg version="1.0" xmlns="http://www.w3.org/2000/svg"
 width="85.000000pt" height="115.000000pt" viewBox="0 0 85.000000 115.000000"
 preserveAspectRatio="xMidYMid meet">

<g transform="translate(0.000000,115.000000) scale(0.100000,-0.100000)"
fill="#2b2f52" stroke="none">
<path d="M354 1085 c-26 -30 -56 -55 -65 -55 -10 0 -30 16 -45 35 -14 19 -30
35 -34 35 -9 0 -36 -62 -50 -115 -13 -54 -13 -174 2 -216 30 -88 118 -167 204
-184 l34 -6 0 -204 c0 -112 -4 -206 -8 -209 -5 -3 -18 15 -30 40 -48 98 -139
166 -267 199 -93 24 -93 24 -84 -37 24 -152 100 -257 234 -320 59 -28 84 -33
157 -36 175 -8 313 69 387 216 24 47 57 179 47 189 -9 10 -115 -16 -173 -42
-92 -41 -121 -70 -191 -185 l-22 -35 0 212 0 213 28 6 c45 11 115 50 144 81
50 53 73 119 72 209 -1 83 -22 175 -48 209 -15 19 -16 19 -55 -25 l-41 -45
-57 63 c-32 34 -66 62 -75 62 -9 0 -38 -25 -64 -55z"/>
</g>
</svg>
