<?xml version="1.0" standalone="no"?>
<!DOCTYPE svg PUBLIC "-//W3C//DTD SVG 20010904//EN"
 "http://www.w3.org/TR/2001/REC-SVG-20010904/DTD/svg10.dtd">
<svg version="1.0" xmlns="http://www.w3.org/2000/svg"
 width="111.000000pt" height="115.000000pt" viewBox="0 0 111.000000 115.000000"
 preserveAspectRatio="xMidYMid meet">

<g transform="translate(0.000000,115.000000) scale(0.100000,-0.100000)"
fill="#2b2f52" stroke="none">
<path d="M490 1140 c-121 -16 -228 -70 -313 -158 -31 -34 -57 -63 -57 -65 0
-8 418 -287 430 -287 5 0 107 64 224 143 l214 143 -35 42 c-42 51 -140 121
-208 149 -44 19 -70 24 -175 37 -14 2 -50 0 -80 -4z"/>
<path d="M41 756 c-41 -111 -44 -272 -6 -387 21 -61 77 -154 123 -203 77 -81
228 -156 313 -156 l29 0 -2 262 -3 262 -210 137 c-116 76 -213 138 -217 138
-4 1 -16 -23 -27 -53z"/>
<path d="M818 672 l-207 -137 -1 -262 0 -263 24 0 c45 0 152 40 212 78 171
111 262 292 251 502 -5 97 -40 221 -61 219 -6 0 -104 -62 -218 -137z"/>
</g>
</svg>
