<?xml version="1.0" standalone="no"?>
<!DOCTYPE svg PUBLIC "-//W3C//DTD SVG 20010904//EN"
 "http://www.w3.org/TR/2001/REC-SVG-20010904/DTD/svg10.dtd">
<svg version="1.0" xmlns="http://www.w3.org/2000/svg"
 width="108.000000pt" height="108.000000pt" viewBox="0 0 108.000000 108.000000"
 preserveAspectRatio="xMidYMid meet">

<g transform="translate(0.000000,108.000000) scale(0.100000,-0.100000)"
fill="#2b2f52" stroke="none">
<path d="M478 1070 c-12 -7 -18 -24 -18 -50 0 -58 -8 -70 -64 -96 -67 -31 -91
-30 -133 6 -18 17 -41 30 -50 30 -19 0 -93 -75 -93 -95 0 -8 14 -30 30 -48 36
-42 37 -66 6 -133 -26 -56 -38 -64 -96 -64 -50 0 -64 -24 -57 -93 5 -56 16
-67 73 -67 45 0 59 -12 87 -73 25 -56 22 -89 -13 -122 -16 -16 -30 -36 -30
-45 0 -22 71 -90 94 -90 10 0 34 14 53 30 41 36 48 37 117 6 60 -27 76 -48 76
-98 0 -47 15 -58 82 -58 65 0 78 12 78 72 0 19 6 42 13 51 11 15 105 57 127
57 5 0 25 -13 43 -30 45 -39 71 -38 113 4 42 42 43 68 4 113 -16 18 -30 38
-30 43 0 22 42 116 57 127 9 7 32 13 51 13 60 0 72 13 72 78 0 67 -11 82 -58
82 -50 0 -71 16 -98 76 -31 69 -30 76 6 117 16 19 30 43 30 54 0 22 -69 93
-91 93 -8 0 -28 -13 -44 -30 -33 -34 -63 -38 -121 -14 -59 24 -74 42 -74 88 0
23 -4 47 -9 55 -11 18 -109 26 -133 11z m148 -336 c79 -38 133 -135 119 -219
-26 -166 -223 -239 -345 -129 -108 97 -87 274 39 341 53 28 136 31 187 7z"/>
</g>
</svg>
