<?xml version="1.0" standalone="no"?>
<!DOCTYPE svg PUBLIC "-//W3C//DTD SVG 20010904//EN"
 "http://www.w3.org/TR/2001/REC-SVG-20010904/DTD/svg10.dtd">
<svg version="1.0" xmlns="http://www.w3.org/2000/svg"
 width="613.000000pt" height="535.000000pt" viewBox="0 0 613.000000 535.000000"
 preserveAspectRatio="xMidYMid meet">

<g transform="translate(0.000000,535.000000) scale(0.100000,-0.100000)"
fill="#292e51" stroke="none">
<path d="M1985 5339 c-483 -45 -907 -388 -1058 -854 -41 -125 -57 -234 -57
-380 0 -267 61 -473 206 -692 63 -95 178 -221 260 -284 l56 -43 -33 -15 c-332
-144 -560 -298 -774 -522 -370 -389 -587 -928 -573 -1426 3 -115 4 -122 42
-198 125 -254 525 -486 1060 -616 473 -114 1041 -143 1557 -78 l86 11 -71 72
c-150 149 -184 264 -156 521 57 512 321 964 737 1261 48 35 132 86 186 115
l98 51 -53 56 c-130 138 -204 275 -257 476 l-26 98 -80 46 c-44 25 -129 68
-190 94 -60 26 -111 51 -112 55 -1 5 28 31 64 58 122 93 259 270 334 430 76
163 108 298 116 485 30 746 -613 1350 -1362 1279z"/>
<path d="M4368 3950 c-347 -63 -618 -309 -725 -657 -24 -79 -27 -103 -27 -243
0 -140 3 -164 28 -244 68 -225 185 -383 394 -531 45 -32 79 -62 75 -66 -5 -3
-48 -21 -98 -39 -419 -150 -733 -425 -924 -806 -92 -183 -142 -362 -162 -582
-10 -95 -9 -135 0 -177 58 -261 584 -511 1218 -580 188 -20 564 -20 743 0 289
34 602 116 812 213 187 87 340 210 392 314 22 44 26 65 26 142 0 285 -98 590
-278 861 -91 139 -281 327 -425 423 -122 81 -249 145 -381 191 -48 17 -94 35
-102 39 -10 6 11 25 75 70 163 112 265 231 341 396 63 135 75 199 75 381 0
185 -16 258 -86 399 -117 234 -338 415 -589 481 -74 19 -308 29 -382 15z"/>
</g>
</svg>
