<?xml version="1.0" standalone="no"?>
<!DOCTYPE svg PUBLIC "-//W3C//DTD SVG 20010904//EN"
 "http://www.w3.org/TR/2001/REC-SVG-20010904/DTD/svg10.dtd">
<svg version="1.0" xmlns="http://www.w3.org/2000/svg"
 width="432.000000pt" height="535.000000pt" viewBox="0 0 432.000000 535.000000"
 preserveAspectRatio="xMidYMid meet">

<g transform="translate(0.000000,535.000000) scale(0.100000,-0.100000)"
fill="#292e51" stroke="none">
<path d="M2043 5339 c-627 -61 -1113 -595 -1113 -1223 0 -256 69 -481 213
-696 70 -105 231 -262 364 -355 62 -44 110 -82 105 -86 -4 -3 -68 -28 -142
-55 -169 -61 -376 -162 -503 -248 -552 -370 -897 -952 -958 -1616 -23 -250 3
-333 145 -475 101 -101 214 -177 387 -259 307 -146 637 -235 1079 -292 168
-21 718 -30 905 -15 832 69 1581 377 1756 723 39 78 45 136 30 309 -32 366
-148 707 -341 1003 -267 409 -640 700 -1115 871 -71 26 -136 50 -143 54 -8 4
34 40 118 101 256 183 415 391 500 649 108 332 67 713 -108 1007 -247 414
-706 649 -1179 603z"/>
</g>
</svg>
