<svg xmlns="http://www.w3.org/2000/svg" xmlns:xlink="http://www.w3.org/1999/xlink" version="1.1" id="Layer_1" x="0px" y="0px" style="enable-background:new 0 0 358.5 222.3;" xml:space="preserve" viewBox="35.3 47.6 288 126.9">
<style type="text/css">
	.st0{fill:#FFFFFF;}
</style>
<g>
	<rect x="35.3" y="148.1" class="st0" width="288" height="0.8"/>
	<g>
		<g>
			<path class="st0" d="M49.1,50.6v13.9h0.7c2.2,0,3.7-0.7,4.7-2c1-1.4,1.6-3.4,1.9-6h1v17.9h-1c-0.2-1.9-0.6-3.5-1.3-4.8     s-1.4-2.1-2.3-2.5c-0.9-0.4-2.1-0.6-3.7-0.6V76c0,1.9,0.1,3,0.2,3.4c0.2,0.4,0.5,0.8,0.9,1c0.4,0.3,1.1,0.4,2.1,0.4h2     c3.2,0,5.7-0.7,7.7-2.2s3.3-3.7,4.1-6.7h0.9l-1.5,10.8H36.1v-0.9h1.1c1,0,1.8-0.2,2.4-0.5c0.4-0.2,0.8-0.6,1-1.2     c0.2-0.4,0.3-1.5,0.3-3.2V54.5c0-1.5,0-2.5-0.1-2.8c-0.2-0.6-0.5-1-0.9-1.4c-0.6-0.5-1.5-0.7-2.6-0.7h-1.1v-0.9h28.5v10.1h-1     c-0.5-2.5-1.2-4.2-2.1-5.3c-0.9-1.1-2.1-1.9-3.7-2.4c-0.9-0.3-2.7-0.5-5.3-0.5H49.1z"/>
			<path class="st0" d="M90.8,73h-12l-1.4,3.3c-0.5,1.1-0.7,2-0.7,2.7c0,1,0.4,1.7,1.2,2.1c0.5,0.3,1.6,0.5,3.3,0.6v0.9H69.8v-0.9     c1.2-0.2,2.2-0.7,3-1.5s1.8-2.5,2.9-5.1l12.2-27.2h0.5l12.3,28c1.2,2.6,2.1,4.3,2.9,5c0.6,0.5,1.4,0.8,2.4,0.9v0.9H89.5v-0.9h0.7     c1.3,0,2.3-0.2,2.8-0.6c0.4-0.3,0.6-0.7,0.6-1.2c0-0.3-0.1-0.6-0.2-0.9c0-0.2-0.3-0.8-0.8-1.9L90.8,73z M90,71.2l-5.1-11.7     l-5.2,11.7H90z"/>
			<path class="st0" d="M139.7,47.9v12h-0.9c-1.1-3.3-2.8-5.8-5.1-7.5c-2.2-1.7-4.7-2.6-7.4-2.6c-2.5,0-4.7,0.7-6.4,2.2     c-1.7,1.4-2.9,3.4-3.6,6c-0.7,2.6-1.1,5.2-1.1,7.9c0,3.3,0.4,6.1,1.2,8.6c0.8,2.5,2,4.3,3.7,5.4s3.8,1.7,6.1,1.7     c0.8,0,1.7-0.1,2.5-0.3c0.9-0.2,1.7-0.4,2.7-0.8v-7.1c0-1.3-0.1-2.2-0.3-2.6c-0.2-0.4-0.6-0.8-1.1-1.1c-0.6-0.3-1.3-0.5-2.1-0.5     h-0.9v-0.9h16.6v0.9c-1.3,0.1-2.1,0.3-2.6,0.5c-0.5,0.3-0.9,0.7-1.1,1.3c-0.2,0.3-0.2,1.1-0.2,2.3v7.1c-2.2,1-4.4,1.7-6.8,2.2     c-2.4,0.5-4.8,0.7-7.3,0.7c-3.2,0-5.9-0.4-8.1-1.3c-2.1-0.9-4-2-5.7-3.5s-2.9-3-3.8-4.8c-1.2-2.3-1.8-4.9-1.8-7.8     c0-5.1,1.8-9.5,5.4-13s8.1-5.3,13.6-5.3c1.7,0,3.2,0.1,4.6,0.4c0.7,0.1,1.9,0.5,3.6,1.1c1.7,0.6,2.6,0.9,2.9,0.9     c0.5,0,0.9-0.2,1.3-0.5s0.8-1,1.1-1.9H139.7z"/>
			<path class="st0" d="M176.8,70.8l-1.3,12h-30.3v-0.9h1.1c1,0,1.8-0.2,2.4-0.5c0.4-0.2,0.8-0.6,1-1.2c0.2-0.4,0.3-1.5,0.3-3.2     V54.5c0-1.7-0.1-2.8-0.3-3.3c-0.2-0.4-0.6-0.8-1.1-1.1c-0.6-0.3-1.3-0.5-2.3-0.5h-1.1v-0.9h18.2v0.9h-1.5c-1,0-1.8,0.2-2.4,0.5     c-0.4,0.2-0.8,0.6-1,1.2c-0.2,0.4-0.3,1.5-0.3,3.2v21.7c0,1.7,0.1,2.9,0.3,3.3c0.2,0.5,0.6,0.8,1.2,1.1c0.4,0.2,1.4,0.2,3,0.2     h2.8c1.8,0,3.3-0.3,4.5-1c1.2-0.6,2.3-1.6,3.1-3c0.9-1.4,1.7-3.4,2.5-6.1H176.8z"/>
			<path class="st0" d="M192.6,50.6v13.9h0.7c2.2,0,3.7-0.7,4.7-2s1.6-3.4,1.9-6h1v17.9h-1c-0.2-1.9-0.6-3.5-1.3-4.8     c-0.6-1.2-1.4-2.1-2.3-2.5s-2.1-0.6-3.7-0.6V76c0,1.9,0.1,3,0.2,3.4c0.2,0.4,0.5,0.8,0.9,1c0.4,0.3,1.1,0.4,2.1,0.4h2     c3.2,0,5.7-0.7,7.7-2.2s3.3-3.7,4.1-6.7h0.9l-1.5,10.8h-29.5v-0.9h1.1c1,0,1.8-0.2,2.4-0.5c0.4-0.2,0.8-0.6,1-1.2     c0.2-0.4,0.3-1.5,0.3-3.2V54.5c0-1.5,0-2.5-0.1-2.8c-0.2-0.6-0.5-1-0.9-1.4c-0.6-0.5-1.5-0.7-2.6-0.7h-1.1v-0.9h28.5v10.1h-1     c-0.5-2.5-1.2-4.2-2-5.3c-0.9-1.1-2.1-1.9-3.7-2.4c-0.9-0.3-2.7-0.5-5.3-0.5H192.6z"/>
			<path class="st0" d="M245.5,48.6v9.2h-0.9c-0.5-2.1-1.1-3.7-1.8-4.6s-1.6-1.7-2.7-2.2c-0.6-0.3-1.8-0.5-3.3-0.5h-2.5v26.3     c0,1.7,0.1,2.8,0.3,3.3c0.2,0.4,0.6,0.8,1.1,1.1s1.3,0.5,2.3,0.5h1.1v0.9h-17.9v-0.9h1.1c1,0,1.8-0.2,2.4-0.5     c0.4-0.2,0.8-0.6,1-1.2c0.2-0.4,0.3-1.5,0.3-3.2V50.6h-2.5c-2.3,0-4,0.5-5,1.5c-1.5,1.4-2.4,3.3-2.8,5.8h-1v-9.2H245.5z"/>
			<path class="st0" d="M266.3,48.2c5.4-0.2,9.8,1.4,13.2,4.8c3.4,3.4,5.1,7.6,5.1,12.7c0,4.3-1.3,8.1-3.8,11.4     c-3.4,4.4-8.1,6.5-14.2,6.5c-6.1,0-10.9-2.1-14.2-6.2c-2.6-3.3-4-7.2-4-11.7c0-5.1,1.7-9.3,5.2-12.7     C257,49.5,261.3,48,266.3,48.2z M266.6,49.8c-3.1,0-5.5,1.6-7.1,4.8c-1.3,2.6-2,6.4-2,11.3c0,5.8,1,10.1,3.1,12.9     c1.4,1.9,3.4,2.9,6,2.9c1.7,0,3.2-0.4,4.3-1.3c1.5-1.1,2.6-2.8,3.4-5.1c0.8-2.4,1.2-5.4,1.2-9.2c0-4.5-0.4-7.9-1.3-10.1     c-0.8-2.2-1.9-3.8-3.2-4.7C269.8,50.2,268.3,49.8,266.6,49.8z"/>
			<path class="st0" d="M299.3,48.6l16.8,21.2V55.1c0-2-0.3-3.4-0.9-4.2c-0.8-1-2.2-1.4-4-1.4v-0.9h11.3v0.9     c-1.4,0.2-2.4,0.4-2.9,0.7c-0.5,0.3-0.9,0.8-1.2,1.4c-0.3,0.7-0.4,1.8-0.4,3.4v28.4h-0.9l-23.1-28.4v21.7c0,2,0.4,3.3,1.3,4     c0.9,0.7,1.9,1,3.1,1h0.8v0.9h-12.1v-0.9c1.9,0,3.2-0.4,3.9-1.2c0.7-0.8,1.1-2,1.1-3.8V52.7l-0.7-0.9c-0.7-0.9-1.4-1.5-1.9-1.8     s-1.3-0.4-2.4-0.5v-0.9H299.3z"/>
		</g>
	</g>
	<g>
		<path class="st0" d="M102.1,112.7c3.2,0.8,5.5,1.7,6.8,2.7c1.9,1.5,2.8,3.5,2.8,5.9c0,2.6-1,4.7-3.1,6.4c-2.5,2-6.2,3-11,3H80.2    v-0.9c1.6,0,2.6-0.1,3.2-0.4c0.6-0.3,1-0.7,1.2-1.1c0.2-0.5,0.3-1.6,0.3-3.5v-22.1c0-1.8-0.1-3-0.3-3.5c-0.2-0.5-0.6-0.9-1.2-1.1    c-0.6-0.3-1.6-0.4-3.2-0.4v-0.9h16.3c3.9,0,6.7,0.3,8.3,1c1.6,0.7,2.9,1.7,3.8,3.1c0.9,1.4,1.4,2.9,1.4,4.4c0,1.6-0.6,3.1-1.8,4.4    C107.2,110.9,105.1,111.9,102.1,112.7z M92.9,114v10.9l0,1.3c0,0.9,0.2,1.6,0.7,2s1.1,0.7,2,0.7c1.3,0,2.6-0.3,3.7-0.9    c1.1-0.6,2-1.5,2.6-2.6s0.9-2.4,0.9-3.8c0-1.6-0.4-3-1.1-4.3c-0.7-1.3-1.8-2.2-3-2.7S95.5,114,92.9,114z M92.9,112    c2.4,0,4.1-0.3,5.3-0.8c1.1-0.5,2-1.3,2.6-2.3s0.9-2.2,0.9-3.7s-0.3-2.7-0.9-3.7c-0.6-1-1.4-1.7-2.6-2.2c-1.1-0.5-2.9-0.7-5.3-0.7    V112z"/>
		<path class="st0" d="M127.2,115.2v9.6c0,1.8,0.1,3,0.3,3.5c0.2,0.5,0.6,0.9,1.2,1.1s1.6,0.4,3.2,0.4v0.9h-17.5v-0.9    c1.6,0,2.6-0.1,3.2-0.4c0.6-0.3,1-0.7,1.2-1.1c0.2-0.5,0.3-1.6,0.3-3.5v-22.1c0-1.8-0.1-3-0.3-3.5c-0.2-0.5-0.6-0.9-1.2-1.1    c-0.6-0.3-1.6-0.4-3.2-0.4v-0.9h15.8c4.1,0,7.1,0.3,9.1,0.9c1.9,0.6,3.5,1.6,4.7,3.2c1.2,1.5,1.8,3.3,1.8,5.4    c0,2.5-0.9,4.6-2.7,6.2c-1.2,1-2.8,1.8-4.9,2.3l8.2,11.5c1.1,1.5,1.8,2.4,2.3,2.8c0.7,0.5,1.5,0.8,2.4,0.9v0.9h-10.7l-11-15.5    H127.2z M127.2,98.5v14.9h1.4c2.3,0,4.1-0.2,5.2-0.6c1.2-0.4,2.1-1.2,2.7-2.3s1-2.6,1-4.4c0-2.6-0.6-4.5-1.8-5.8    c-1.2-1.2-3.2-1.9-5.9-1.9H127.2z"/>
		<path class="st0" d="M170.6,96.2c5.4-0.2,9.8,1.4,13.2,4.8c3.4,3.4,5.1,7.6,5.1,12.7c0,4.3-1.3,8.1-3.8,11.4    c-3.4,4.4-8.1,6.5-14.2,6.5c-6.1,0-10.9-2.1-14.2-6.2c-2.6-3.3-4-7.2-4-11.7c0-5.1,1.7-9.3,5.2-12.7    C161.3,97.6,165.6,96,170.6,96.2z M170.9,97.8c-3.1,0-5.5,1.6-7.1,4.8c-1.3,2.6-2,6.4-2,11.3c0,5.8,1,10.1,3.1,12.9    c1.4,1.9,3.4,2.9,6,2.9c1.7,0,3.2-0.4,4.3-1.3c1.5-1.1,2.6-2.8,3.4-5.1s1.2-5.4,1.2-9.2c0-4.5-0.4-7.9-1.3-10.1    c-0.8-2.2-1.9-3.8-3.2-4.7C174.1,98.3,172.6,97.8,170.9,97.8z"/>
		<path class="st0" d="M239.8,96.7v0.9c-0.6,0-1.2,0.2-1.6,0.5c-0.4,0.3-0.8,0.8-1.2,1.4c-0.1,0.2-0.6,1.5-1.6,3.9l-10.7,28.1h-1    l-8.5-22l-9.3,22h-0.9l-11.2-27.8c-1.1-2.8-1.9-4.5-2.4-5.1c-0.5-0.6-1.2-0.9-2.3-1v-0.9H204v0.9c-1.2,0-2,0.2-2.4,0.5    c-0.4,0.3-0.6,0.7-0.6,1.2c0,0.6,0.4,2,1.2,4L209,120l5.4-12.9l-1.4-3.6c-0.8-2-1.4-3.3-1.8-4s-0.9-1.1-1.4-1.4s-1.3-0.4-2.4-0.4    v-0.9h16.5v0.9c-1.2,0-2,0.1-2.5,0.3c-0.4,0.1-0.6,0.3-0.8,0.6c-0.2,0.3-0.3,0.6-0.3,0.9c0,0.4,0.4,1.6,1.1,3.5l6.2,16.1l5.6-14.6    c0.6-1.5,0.9-2.5,1.1-3.1c0.1-0.6,0.2-1.1,0.2-1.5c0-0.7-0.2-1.2-0.7-1.6c-0.5-0.4-1.4-0.6-2.7-0.6v-0.9H239.8z"/>
		<path class="st0" d="M255.1,96.7l16.8,21.2v-14.7c0-2-0.3-3.4-0.9-4.2c-0.8-1-2.2-1.4-4-1.4v-0.9h11.3v0.9    c-1.4,0.2-2.4,0.4-2.9,0.7c-0.5,0.3-0.9,0.8-1.2,1.4c-0.3,0.7-0.4,1.8-0.4,3.4v28.4h-0.9l-23.1-28.4v21.7c0,2,0.4,3.3,1.3,4    s1.9,1,3.1,1h0.8v0.9H243v-0.9c1.9,0,3.2-0.4,3.9-1.2c0.7-0.8,1.1-2,1.1-3.8v-24.1l-0.7-0.9c-0.7-0.9-1.4-1.5-1.9-1.8    c-0.6-0.3-1.4-0.4-2.4-0.5v-0.9H255.1z"/>
	</g>
	<g>
		<path class="st0" d="M35.4,166.1h1.5v8.3h-1.5V166.1z"/>
		<path class="st0" d="M46.1,166.1h1.3l4.4,5.7v-5.7h1.4v8.3h-1.2l-4.6-5.9v5.9h-1.4V166.1z"/>
		<path class="st0" d="M61.8,166.1h1.6l2.5,6.4l2.5-6.4H70l-3.4,8.3h-1.3L61.8,166.1z"/>
		<path class="st0" d="M78.5,166.1h6.1v1.3H80v2.2h4.1v1.3H80v2.2h4.7v1.3h-6.2V166.1z"/>
		<path class="st0" d="M93,173.1l0.9-1c0.8,0.7,1.6,1.1,2.6,1.1c0.9,0,1.5-0.4,1.5-1v0c0-0.6-0.3-0.9-1.9-1.3    c-1.8-0.4-2.8-0.9-2.8-2.5v0c0-1.4,1.2-2.4,2.8-2.4c1.2,0,2.2,0.4,3,1l-0.8,1.1c-0.7-0.6-1.5-0.9-2.2-0.9c-0.9,0-1.3,0.4-1.3,1v0    c0,0.6,0.4,0.9,2,1.3c1.7,0.4,2.6,1.1,2.6,2.4v0c0,1.5-1.2,2.5-3,2.5C95.2,174.5,94,174,93,173.1z"/>
		<path class="st0" d="M110,167.4h-2.6v-1.3h6.7v1.3h-2.6v6.9H110V167.4z"/>
		<path class="st0" d="M122.7,166.1h1.5l2.5,3.9l2.5-3.9h1.5v8.3h-1.5v-5.9l-2.6,3.9h0l-2.6-3.9v5.9h-1.4V166.1z"/>
		<path class="st0" d="M140.1,166.1h6.1v1.3h-4.7v2.2h4.1v1.3h-4.1v2.2h4.7v1.3h-6.2V166.1z"/>
		<path class="st0" d="M155.1,166.1h1.3l4.4,5.7v-5.7h1.4v8.3h-1.2l-4.6-5.9v5.9h-1.4V166.1z"/>
		<path class="st0" d="M173.5,167.4h-2.6v-1.3h6.7v1.3H175v6.9h-1.5V167.4z"/>
		<path class="st0" d="M196.5,170.2L196.5,170.2c0-2.3,1.8-4.3,4.3-4.3c1.4,0,2.3,0.4,3.2,1.1l-0.9,1.1c-0.6-0.5-1.3-0.9-2.3-0.9    c-1.5,0-2.7,1.3-2.7,2.9v0c0,1.7,1.1,3,2.8,3c0.8,0,1.5-0.2,2-0.6V171h-2.1v-1.3h3.5v3.5c-0.8,0.7-2,1.3-3.5,1.3    C198.2,174.5,196.5,172.6,196.5,170.2z"/>
		<path class="st0" d="M213.2,166.1h3.7c1,0,1.9,0.3,2.4,0.8c0.4,0.4,0.7,1.1,0.7,1.8v0c0,1.4-0.8,2.2-2,2.5l2.2,3.1h-1.7l-2-2.9    h-1.8v2.9h-1.5V166.1z M216.8,170.2c1,0,1.7-0.5,1.7-1.4v0c0-0.9-0.6-1.4-1.7-1.4h-2.1v2.8H216.8z"/>
		<path class="st0" d="M228.5,170.2L228.5,170.2c0-2.4,1.8-4.3,4.3-4.3c2.5,0,4.3,1.9,4.3,4.3v0c0,2.3-1.8,4.3-4.3,4.3    C230.3,174.5,228.5,172.6,228.5,170.2z M235.6,170.2L235.6,170.2c0-1.6-1.2-3-2.8-3c-1.6,0-2.8,1.3-2.8,2.9v0    c0,1.6,1.2,2.9,2.8,2.9C234.5,173.1,235.6,171.8,235.6,170.2z"/>
		<path class="st0" d="M245.9,170.8v-4.8h1.5v4.7c0,1.5,0.8,2.4,2.1,2.4c1.3,0,2.1-0.8,2.1-2.3v-4.8h1.5v4.7c0,2.5-1.4,3.7-3.6,3.7    C247.2,174.5,245.9,173.2,245.9,170.8z"/>
		<path class="st0" d="M262,166.1h3.3c1.9,0,3.1,1.1,3.1,2.8v0c0,1.9-1.5,2.8-3.3,2.8h-1.6v2.7H262V166.1z M265.2,170.4    c1.1,0,1.8-0.6,1.8-1.5v0c0-1-0.7-1.5-1.8-1.5h-1.7v3H265.2z"/>
		<path class="st0" d="M287.7,166.1h1.5v6.9h4.3v1.3h-5.8V166.1z"/>
		<path class="st0" d="M302.1,166.1h1.5v6.9h4.3v1.3h-5.8V166.1z"/>
		<path class="st0" d="M315.6,170.2L315.6,170.2c0-2.4,1.8-4.3,4.3-4.3c1.5,0,2.5,0.5,3.3,1.3l-0.9,1.1c-0.7-0.6-1.4-1-2.3-1    c-1.6,0-2.7,1.3-2.7,2.9v0c0,1.6,1.1,2.9,2.7,2.9c1,0,1.7-0.4,2.4-1.1l0.9,0.9c-0.9,0.9-1.8,1.5-3.4,1.5    C317.4,174.5,315.6,172.6,315.6,170.2z"/>
	</g>
</g>
</svg>